<svg width="162" height="66" viewBox="0 0 162 66" fill="none" xmlns="http://www.w3.org/2000/svg">
<circle cx="42" cy="33" r="33" fill="url(#paint0_linear_18_38)"/>
<path d="M86.5527 20.7305L80.4619 29.4395H84.2627C84.846 29.4395 85.2926 29.3118 85.6025 29.0566C85.917 28.8014 86.195 28.2842 86.4365 27.5049L86.6621 27.5459L86.2246 30H78.6777V29.7471L84.625 21.2842H81.6582C81.166 21.2842 80.8083 21.3389 80.585 21.4482C80.3662 21.5531 80.1976 21.708 80.0791 21.9131C79.9652 22.1136 79.8604 22.4919 79.7646 23.0479H79.5049L79.6963 20.7305H86.5527ZM95.5844 21.2363V24.9004H97.6215C98.1501 24.9004 98.5033 24.8206 98.6811 24.6611C98.918 24.4515 99.0502 24.0824 99.0775 23.5537H99.3305V26.7803H99.0775C99.0137 26.3291 98.9499 26.0397 98.8861 25.9121C98.8041 25.7526 98.6697 25.6273 98.4828 25.5361C98.296 25.445 98.0089 25.3994 97.6215 25.3994H95.5844V28.4551C95.5844 28.8652 95.6026 29.1159 95.6391 29.207C95.6755 29.2936 95.7393 29.3643 95.8305 29.4189C95.9216 29.4691 96.0948 29.4941 96.35 29.4941H97.9223C98.4464 29.4941 98.8269 29.4577 99.0639 29.3848C99.3008 29.3118 99.5287 29.1683 99.7475 28.9541C100.03 28.6715 100.319 28.2454 100.616 27.6758H100.889L100.089 30H92.9457V29.7471H93.2738C93.4926 29.7471 93.6999 29.6947 93.8959 29.5898C94.0417 29.5169 94.1397 29.4076 94.1898 29.2617C94.2445 29.1159 94.2719 28.8174 94.2719 28.3662V22.3438C94.2719 21.7559 94.2126 21.3936 94.0941 21.2568C93.9301 21.0745 93.6566 20.9834 93.2738 20.9834H92.9457V20.7305H100.089L100.192 22.7607H99.9252C99.8295 22.2731 99.7224 21.9382 99.6039 21.7559C99.49 21.5736 99.3191 21.4346 99.0912 21.3389C98.9089 21.2705 98.5876 21.2363 98.1273 21.2363H95.5844ZM109.688 25.6592V28.3594C109.688 28.9427 109.752 29.305 109.88 29.4463C110.053 29.6468 110.315 29.7471 110.666 29.7471H111.021V30H107.05V29.7471H107.398C107.79 29.7471 108.07 29.6195 108.239 29.3643C108.33 29.223 108.376 28.888 108.376 28.3594V22.3711C108.376 21.7878 108.314 21.4255 108.191 21.2842C108.013 21.0837 107.749 20.9834 107.398 20.9834H107.05V20.7305H110.447C111.276 20.7305 111.93 20.8171 112.409 20.9902C112.888 21.1589 113.291 21.446 113.619 21.8516C113.947 22.2572 114.111 22.738 114.111 23.2939C114.111 24.0505 113.86 24.6657 113.359 25.1396C112.862 25.6136 112.158 25.8506 111.247 25.8506C111.024 25.8506 110.782 25.8346 110.522 25.8027C110.263 25.7708 109.985 25.723 109.688 25.6592ZM109.688 25.2695C109.93 25.3151 110.144 25.3493 110.331 25.3721C110.518 25.3949 110.677 25.4062 110.809 25.4062C111.283 25.4062 111.691 25.224 112.033 24.8594C112.379 24.4902 112.553 24.014 112.553 23.4307C112.553 23.0296 112.471 22.6582 112.306 22.3164C112.142 21.9701 111.91 21.7126 111.609 21.5439C111.308 21.3708 110.967 21.2842 110.584 21.2842C110.351 21.2842 110.053 21.3275 109.688 21.4141V25.2695ZM123.088 25.0303H127.395V22.3779C127.395 21.904 127.365 21.5918 127.306 21.4414C127.26 21.3275 127.165 21.2295 127.019 21.1475C126.823 21.0381 126.615 20.9834 126.397 20.9834H126.069V20.7305H130.033V20.9834H129.705C129.487 20.9834 129.279 21.0358 129.083 21.1406C128.937 21.2135 128.837 21.3252 128.782 21.4756C128.732 21.6214 128.707 21.9222 128.707 22.3779V28.3594C128.707 28.8288 128.737 29.1387 128.796 29.2891C128.842 29.403 128.935 29.501 129.076 29.583C129.277 29.6924 129.487 29.7471 129.705 29.7471H130.033V30H126.069V29.7471H126.397C126.775 29.7471 127.051 29.6354 127.224 29.4121C127.338 29.2663 127.395 28.9154 127.395 28.3594V25.5361H123.088V28.3594C123.088 28.8288 123.118 29.1387 123.177 29.2891C123.223 29.403 123.318 29.501 123.464 29.583C123.66 29.6924 123.867 29.7471 124.086 29.7471H124.421V30H120.449V29.7471H120.778C121.16 29.7471 121.438 29.6354 121.612 29.4121C121.721 29.2663 121.776 28.9154 121.776 28.3594V22.3779C121.776 21.904 121.746 21.5918 121.687 21.4414C121.641 21.3275 121.548 21.2295 121.406 21.1475C121.206 21.0381 120.996 20.9834 120.778 20.9834H120.449V20.7305H124.421V20.9834H124.086C123.867 20.9834 123.66 21.0358 123.464 21.1406C123.323 21.2135 123.225 21.3252 123.17 21.4756C123.115 21.6214 123.088 21.9222 123.088 22.3779V25.0303ZM142.599 20.7305H145.833V20.9834H145.655C145.536 20.9834 145.363 21.0358 145.135 21.1406C144.907 21.2454 144.7 21.3958 144.513 21.5918C144.326 21.7878 144.096 22.1068 143.823 22.5488L141.588 26.0693V28.3936C141.588 28.9632 141.651 29.3187 141.779 29.46C141.952 29.6514 142.226 29.7471 142.599 29.7471H142.9V30H138.963V29.7471H139.291C139.683 29.7471 139.961 29.6286 140.125 29.3916C140.225 29.2458 140.275 28.9131 140.275 28.3936V26.1992L137.732 22.3164C137.431 21.8607 137.226 21.5758 137.117 21.4619C137.012 21.348 136.791 21.2113 136.454 21.0518C136.363 21.0062 136.23 20.9834 136.057 20.9834V20.7305H140.022V20.9834H139.817C139.603 20.9834 139.405 21.0335 139.222 21.1338C139.045 21.234 138.956 21.3844 138.956 21.585C138.956 21.749 139.095 22.0452 139.373 22.4736L141.307 25.4609L143.126 22.6035C143.399 22.1751 143.536 21.8561 143.536 21.6465C143.536 21.5189 143.502 21.4049 143.433 21.3047C143.369 21.2044 143.276 21.127 143.153 21.0723C143.03 21.013 142.845 20.9834 142.599 20.9834V20.7305ZM161.105 30H158.631L155.493 25.666C155.261 25.6751 155.072 25.6797 154.926 25.6797C154.867 25.6797 154.803 25.6797 154.734 25.6797C154.666 25.6751 154.595 25.6706 154.522 25.666V28.3594C154.522 28.9427 154.586 29.305 154.714 29.4463C154.887 29.6468 155.147 29.7471 155.493 29.7471H155.855V30H151.884V29.7471H152.232C152.624 29.7471 152.905 29.6195 153.073 29.3643C153.169 29.223 153.217 28.888 153.217 28.3594V22.3711C153.217 21.7878 153.153 21.4255 153.025 21.2842C152.848 21.0837 152.583 20.9834 152.232 20.9834H151.884V20.7305H155.261C156.245 20.7305 156.97 20.8034 157.435 20.9492C157.904 21.0905 158.3 21.3548 158.624 21.7422C158.952 22.125 159.116 22.583 159.116 23.1162C159.116 23.6859 158.929 24.1803 158.556 24.5996C158.187 25.0189 157.612 25.3151 156.833 25.4883L158.747 28.1475C159.185 28.7581 159.561 29.1637 159.875 29.3643C160.189 29.5648 160.6 29.6924 161.105 29.7471V30ZM154.522 25.2354C154.609 25.2354 154.684 25.2376 154.748 25.2422C154.812 25.2422 154.864 25.2422 154.905 25.2422C155.789 25.2422 156.455 25.0508 156.901 24.668C157.353 24.2852 157.578 23.7975 157.578 23.2051C157.578 22.6263 157.396 22.1569 157.031 21.7969C156.671 21.4323 156.193 21.25 155.596 21.25C155.331 21.25 154.974 21.2933 154.522 21.3799V25.2354Z" fill="url(#paint1_linear_18_38)"/>
<path d="M83.353 42.4063H80.3537L79.8281 43.6289C79.6986 43.9298 79.6339 44.1545 79.6339 44.303C79.6339 44.4211 79.6891 44.5258 79.7996 44.6172C79.9138 44.7048 80.1576 44.762 80.5308 44.7886V45H78.0914V44.7886C78.4151 44.7315 78.6246 44.6572 78.7198 44.5658C78.9141 44.383 79.1292 44.0117 79.3654 43.4518L82.0904 37.0762H82.2904L84.9869 43.5204C85.204 44.0383 85.4001 44.3754 85.5753 44.5315C85.7543 44.6839 86.0019 44.7696 86.318 44.7886V45H83.2616V44.7886C83.5701 44.7734 83.7776 44.722 83.8843 44.6344C83.9947 44.5468 84.05 44.4401 84.05 44.3145C84.05 44.1469 83.9738 43.8822 83.8214 43.5204L83.353 42.4063ZM83.193 41.9836L81.8791 38.8529L80.5308 41.9836H83.193ZM94.4698 36.8763C94.6298 36.8763 94.765 36.9334 94.8754 37.0477C94.9897 37.1581 95.0468 37.2933 95.0468 37.4533C95.0468 37.6132 94.9897 37.7503 94.8754 37.8646C94.765 37.9789 94.6298 38.036 94.4698 38.036C94.3098 38.036 94.1727 37.9789 94.0585 37.8646C93.9442 37.7503 93.8871 37.6132 93.8871 37.4533C93.8871 37.2933 93.9423 37.1581 94.0528 37.0477C94.167 36.9334 94.306 36.8763 94.4698 36.8763ZM94.944 39.6127V43.8174C94.944 44.145 94.9668 44.364 95.0125 44.4744C95.062 44.5811 95.1325 44.661 95.2239 44.7144C95.3191 44.7677 95.4905 44.7943 95.7381 44.7943V45H93.1958V44.7943C93.451 44.7943 93.6224 44.7696 93.71 44.7201C93.7976 44.6706 93.8661 44.5887 93.9157 44.4744C93.969 44.3602 93.9956 44.1412 93.9956 43.8174V41.8008C93.9956 41.2333 93.9785 40.8658 93.9442 40.6982C93.9176 40.5763 93.8757 40.4925 93.8185 40.4468C93.7614 40.3973 93.6833 40.3726 93.5843 40.3726C93.4777 40.3726 93.3482 40.4011 93.1958 40.4583L93.1159 40.2526L94.6926 39.6127H94.944ZM104.244 39.6127V40.7896C104.682 40.005 105.132 39.6127 105.592 39.6127C105.802 39.6127 105.975 39.6775 106.112 39.807C106.249 39.9327 106.318 40.0793 106.318 40.2469C106.318 40.3954 106.268 40.5211 106.169 40.6239C106.07 40.7268 105.952 40.7782 105.815 40.7782C105.682 40.7782 105.531 40.7134 105.364 40.5839C105.2 40.4506 105.078 40.384 104.998 40.384C104.93 40.384 104.855 40.4221 104.775 40.4982C104.604 40.6544 104.427 40.9115 104.244 41.2695V43.7774C104.244 44.0669 104.28 44.2859 104.353 44.4344C104.402 44.5373 104.49 44.6229 104.615 44.6915C104.741 44.7601 104.922 44.7943 105.158 44.7943V45H102.479V44.7943C102.745 44.7943 102.943 44.7524 103.073 44.6687C103.168 44.6077 103.235 44.5106 103.273 44.3773C103.292 44.3125 103.301 44.1278 103.301 43.8231V41.7951C103.301 41.1857 103.288 40.8239 103.261 40.7096C103.239 40.5916 103.193 40.5059 103.124 40.4525C103.06 40.3992 102.978 40.3726 102.879 40.3726C102.761 40.3726 102.627 40.4011 102.479 40.4583L102.422 40.2526L104.004 39.6127H104.244ZM114.727 36.8763V43.8174C114.727 44.145 114.75 44.3621 114.795 44.4687C114.845 44.5753 114.919 44.6572 115.018 44.7144C115.117 44.7677 115.302 44.7943 115.572 44.7943V45H113.007V44.7943C113.247 44.7943 113.411 44.7696 113.499 44.7201C113.586 44.6706 113.655 44.5887 113.704 44.4744C113.754 44.3602 113.778 44.1412 113.778 43.8174V39.0643C113.778 38.474 113.765 38.1122 113.738 37.9789C113.712 37.8417 113.668 37.7484 113.607 37.6989C113.55 37.6494 113.476 37.6247 113.384 37.6247C113.285 37.6247 113.16 37.6551 113.007 37.7161L112.91 37.5161L114.47 36.8763H114.727ZM123.833 36.8763C123.993 36.8763 124.128 36.9334 124.238 37.0477C124.353 37.1581 124.41 37.2933 124.41 37.4533C124.41 37.6132 124.353 37.7503 124.238 37.8646C124.128 37.9789 123.993 38.036 123.833 38.036C123.673 38.036 123.536 37.9789 123.421 37.8646C123.307 37.7503 123.25 37.6132 123.25 37.4533C123.25 37.2933 123.305 37.1581 123.416 37.0477C123.53 36.9334 123.669 36.8763 123.833 36.8763ZM124.307 39.6127V43.8174C124.307 44.145 124.33 44.364 124.375 44.4744C124.425 44.5811 124.495 44.661 124.587 44.7144C124.682 44.7677 124.853 44.7943 125.101 44.7943V45H122.559V44.7943C122.814 44.7943 122.985 44.7696 123.073 44.7201C123.16 44.6706 123.229 44.5887 123.279 44.4744C123.332 44.3602 123.359 44.1412 123.359 43.8174V41.8008C123.359 41.2333 123.341 40.8658 123.307 40.6982C123.28 40.5763 123.239 40.4925 123.181 40.4468C123.124 40.3973 123.046 40.3726 122.947 40.3726C122.841 40.3726 122.711 40.4011 122.559 40.4583L122.479 40.2526L124.055 39.6127H124.307ZM133.601 40.721C134.214 39.9822 134.799 39.6127 135.355 39.6127C135.641 39.6127 135.886 39.6851 136.092 39.8298C136.298 39.9708 136.462 40.205 136.583 40.5325C136.667 40.761 136.709 41.1114 136.709 41.5837V43.8174C136.709 44.1488 136.736 44.3735 136.789 44.4916C136.831 44.5868 136.898 44.661 136.989 44.7144C137.084 44.7677 137.258 44.7943 137.509 44.7943V45H134.921V44.7943H135.03C135.273 44.7943 135.443 44.7582 135.538 44.6858C135.637 44.6096 135.706 44.4992 135.744 44.3544C135.759 44.2973 135.766 44.1183 135.766 43.8174V41.6751C135.766 41.199 135.704 40.8543 135.578 40.6411C135.456 40.424 135.248 40.3154 134.955 40.3154C134.502 40.3154 134.051 40.563 133.601 41.0581V43.8174C133.601 44.1716 133.622 44.3906 133.664 44.4744C133.717 44.5849 133.79 44.6667 133.881 44.7201C133.976 44.7696 134.167 44.7943 134.452 44.7943V45H131.865V44.7943H131.979C132.245 44.7943 132.424 44.7277 132.516 44.5944C132.611 44.4573 132.659 44.1983 132.659 43.8174V41.875C132.659 41.2466 132.643 40.8639 132.613 40.7268C132.586 40.5896 132.542 40.4963 132.482 40.4468C132.424 40.3973 132.346 40.3726 132.247 40.3726C132.141 40.3726 132.013 40.4011 131.865 40.4583L131.779 40.2526L133.356 39.6127H133.601V40.721ZM145.124 41.7379C145.12 42.5149 145.308 43.1243 145.689 43.5661C146.07 44.0079 146.518 44.2288 147.032 44.2288C147.375 44.2288 147.672 44.1354 147.923 43.9488C148.178 43.7584 148.391 43.4347 148.563 42.9776L148.74 43.0919C148.66 43.6137 148.428 44.0897 148.043 44.5201C147.658 44.9467 147.177 45.16 146.598 45.16C145.969 45.16 145.43 44.9162 144.981 44.4287C144.535 43.9374 144.312 43.2785 144.312 42.4521C144.312 41.557 144.541 40.8601 144.998 40.3611C145.459 39.8584 146.036 39.607 146.729 39.607C147.316 39.607 147.797 39.8013 148.174 40.1897C148.551 40.5744 148.74 41.0905 148.74 41.7379H145.124ZM145.124 41.4066H147.546C147.527 41.0714 147.487 40.8353 147.426 40.6982C147.331 40.4849 147.188 40.3173 146.998 40.1955C146.811 40.0736 146.615 40.0126 146.409 40.0126C146.093 40.0126 145.809 40.1364 145.558 40.384C145.31 40.6277 145.166 40.9686 145.124 41.4066ZM159.143 39.6127V41.3952H158.954C158.809 40.8353 158.623 40.4544 158.394 40.2526C158.17 40.0507 157.882 39.9498 157.532 39.9498C157.265 39.9498 157.05 40.0203 156.886 40.1612C156.722 40.3021 156.64 40.4583 156.64 40.6296C156.64 40.8429 156.701 41.0257 156.823 41.1781C156.941 41.3342 157.181 41.4999 157.543 41.6751L158.377 42.0807C159.15 42.4578 159.537 42.9548 159.537 43.5718C159.537 44.0479 159.356 44.4325 158.994 44.7258C158.636 45.0152 158.234 45.16 157.789 45.16C157.469 45.16 157.103 45.1028 156.692 44.9886C156.566 44.9505 156.463 44.9314 156.383 44.9314C156.296 44.9314 156.227 44.981 156.178 45.08H155.989V43.2119H156.178C156.284 43.7451 156.488 44.1469 156.789 44.4173C157.09 44.6877 157.427 44.8229 157.8 44.8229C158.063 44.8229 158.276 44.7467 158.44 44.5944C158.608 44.4382 158.691 44.2516 158.691 44.0345C158.691 43.7717 158.598 43.5508 158.411 43.3718C158.229 43.1928 157.861 42.9662 157.309 42.692C156.757 42.4178 156.395 42.1702 156.223 41.9493C156.052 41.7322 155.966 41.458 155.966 41.1267C155.966 40.6963 156.113 40.3364 156.406 40.0469C156.703 39.7575 157.086 39.6127 157.555 39.6127C157.76 39.6127 158.01 39.6565 158.303 39.7441C158.497 39.8013 158.627 39.8298 158.691 39.8298C158.752 39.8298 158.8 39.8165 158.834 39.7898C158.868 39.7632 158.908 39.7042 158.954 39.6127H159.143Z" fill="url(#paint2_linear_18_38)"/>
<path d="M0.365387 44V19L42.6595 19.5L31.5 3L72 33L32.5 63.5L43 44H0.365387Z" fill="white"/>
<defs>
<linearGradient id="paint0_linear_18_38" x1="42" y1="0" x2="42" y2="66" gradientUnits="userSpaceOnUse">
<stop stop-color="#A61818"/>
<stop offset="1" stop-color="#0004D8"/>
</linearGradient>
<linearGradient id="paint1_linear_18_38" x1="120" y1="17" x2="120" y2="33" gradientUnits="userSpaceOnUse">
<stop stop-color="#A61818"/>
<stop offset="1" stop-color="#400909"/>
</linearGradient>
<linearGradient id="paint2_linear_18_38" x1="119" y1="35" x2="119" y2="48" gradientUnits="userSpaceOnUse">
<stop stop-color="#0004D8"/>
<stop offset="1" stop-color="#000272"/>
</linearGradient>
</defs>
</svg>
